<?xml version="1.0" encoding="iso-8859-1"?>
<!-- Generator: Adobe Illustrator 19.0.0, SVG Export Plug-In . SVG Version: 6.00 Build 0)  -->
<svg version="1.1" id="Layer_1" xmlns="http://www.w3.org/2000/svg" xmlns:xlink="http://www.w3.org/1999/xlink" x="0px" y="0px"
	 viewBox="0 0 512 512" style="enable-background:new 0 0 512 512;" xml:space="preserve">
<path style="fill:#8AE9FF;" d="M366.322,321.859l-81.483,81.483l-0.001-294.688l81.484,81.484c11.243,11.244,29.539,11.244,40.781,0
	c5.446-5.446,8.447-12.689,8.447-20.391c0-7.703-3.001-14.945-8.447-20.391L276.391,18.645c-5.446-5.446-12.688-8.446-20.39-8.446
	c-7.702,0-14.944,3-20.39,8.446L104.897,149.358c-5.446,5.446-8.447,12.688-8.447,20.391c0,7.702,3.001,14.945,8.447,20.391
	c11.243,11.244,29.539,11.244,40.782,0l81.484-81.484v294.688l-81.484-81.484c-11.243-11.244-29.539-11.244-40.782,0
	c-5.446,5.446-8.447,12.689-8.447,20.391c0,7.703,3.001,14.945,8.447,20.391l130.712,130.712c5.446,5.446,12.688,8.446,20.39,8.446
	c7.702,0,14.944-3,20.39-8.446l130.712-130.712c5.446-5.446,8.447-12.688,8.447-20.391c0-7.702-3.001-14.945-8.447-20.391
	C395.861,310.616,377.565,310.616,366.322,321.859z"/>
<g>
	<path style="fill:#248A9C;" d="M256.001,512c-10.428,0-20.23-4.06-27.602-11.433L97.684,369.854
		c-7.373-7.374-11.434-17.178-11.434-27.603c0-10.426,4.06-20.229,11.434-27.603c7.365-7.365,17.167-11.42,27.603-11.42
		c10.435,0,20.238,4.056,27.602,11.42l64.073,64.073V133.279l-64.073,64.073c-7.365,7.364-17.167,11.42-27.602,11.42
		c-10.436,0-20.239-4.056-27.603-11.42c-7.373-7.374-11.434-17.178-11.434-27.603c0-10.426,4.06-20.228,11.434-27.602
		L228.397,11.434C235.77,4.06,245.573,0,256.001,0c10.428,0,20.23,4.06,27.602,11.433l130.713,130.712
		c7.373,7.374,11.434,17.177,11.434,27.603s-4.06,20.229-11.434,27.603c-7.365,7.365-17.167,11.42-27.603,11.42
		c-10.435,0-20.238-4.056-27.602-11.42l-64.073-64.073l0.001,245.442l64.072-64.073l0,0l0,0c7.365-7.364,17.167-11.42,27.602-11.42
		c10.436,0,20.239,4.056,27.603,11.42c7.373,7.374,11.434,17.178,11.434,27.603s-4.06,20.228-11.434,27.602L283.603,500.565
		C276.231,507.94,266.428,512,256.001,512z M125.289,323.626c-4.988,0-9.668,1.934-13.179,5.445
		c-3.521,3.522-5.461,8.202-5.461,13.179c0,4.977,1.939,9.658,5.461,13.179l130.713,130.712c3.52,3.521,8.2,5.46,13.178,5.46
		c4.978,0,9.659-1.939,13.178-5.459L399.892,355.43c3.521-3.521,5.461-8.201,5.461-13.178c0-4.977-1.939-9.659-5.461-13.179
		c-3.511-3.512-8.191-5.445-13.179-5.445c-4.987,0-9.668,1.934-13.178,5.445l0,0l-81.484,81.484
		c-2.916,2.916-7.303,3.79-11.115,2.21c-3.81-1.579-6.296-5.297-6.296-9.423l-0.001-294.688c0-4.125,2.486-7.844,6.296-9.423
		c3.811-1.578,8.198-0.706,11.115,2.21l81.486,81.484c3.511,3.512,8.191,5.445,13.178,5.445c4.988,0,9.668-1.934,13.179-5.445
		c3.521-3.522,5.461-8.202,5.461-13.179s-1.939-9.658-5.461-13.179L269.179,25.858c-3.52-3.521-8.2-5.46-13.178-5.46
		c-4.978,0-9.659,1.939-13.178,5.459L112.109,156.57c-3.521,3.521-5.461,8.201-5.461,13.178s1.939,9.659,5.461,13.179
		c3.511,3.512,8.191,5.445,13.179,5.445c4.987,0,9.668-1.934,13.178-5.445l81.486-81.486c2.917-2.916,7.304-3.79,11.115-2.21
		c3.81,1.579,6.296,5.297,6.296,9.423v294.689c0,4.125-2.486,7.844-6.296,9.423c-3.811,1.577-8.199,0.706-11.115-2.21
		l-81.486-81.484C134.955,325.56,130.275,323.626,125.289,323.626z"/>
	<path style="fill:#248A9C;" d="M178.15,406.085c-2.611,0-5.22-0.995-7.212-2.987l-2.085-2.085c-3.983-3.983-3.983-10.441,0-14.425
		c3.984-3.983,10.44-3.983,14.425,0l2.085,2.085c3.983,3.983,3.983,10.441,0,14.425C183.37,405.09,180.76,406.085,178.15,406.085z"
		/>
	<path style="fill:#248A9C;" d="M253.003,480.708c-2.611,0-5.22-0.995-7.212-2.987l-54.901-54.902
		c-3.983-3.983-3.983-10.441,0-14.424c3.986-3.983,10.442-3.983,14.425,0l54.901,54.901c3.983,3.984,3.983,10.441,0,14.425
		C258.223,479.711,255.612,480.708,253.003,480.708z"/>
</g>
<g>
</g>
<g>
</g>
<g>
</g>
<g>
</g>
<g>
</g>
<g>
</g>
<g>
</g>
<g>
</g>
<g>
</g>
<g>
</g>
<g>
</g>
<g>
</g>
<g>
</g>
<g>
</g>
<g>
</g>
</svg>
